<?xml version="1.0" encoding="UTF-8" standalone="no"?>
<!DOCTYPE svg PUBLIC "-//W3C//DTD SVG 1.1//EN" "http://www.w3.org/Graphics/SVG/1.1/DTD/svg11.dtd">
<svg width="100%" height="100%" viewBox="0 0 200 200" version="1.1" xmlns="http://www.w3.org/2000/svg" xmlns:xlink="http://www.w3.org/1999/xlink" xml:space="preserve" xmlns:serif="http://www.serif.com/" style="fill-rule:evenodd;clip-rule:evenodd;stroke-linejoin:round;stroke-miterlimit:2;">
    <g transform="matrix(5.65745,0,0,5.02165,-337.598,-288.215)">
        <path d="M89.964,96.455L85.918,92.459C83.853,93.758 81.672,94.407 79.374,94.407L74.08,94.407C71.449,94.407 69.126,93.849 67.112,92.734C65.097,91.618 63.532,90.053 62.416,88.038C61.301,86.024 60.743,83.684 60.743,81.02L60.743,72.029C60.743,69.365 61.301,67.026 62.416,65.011C63.532,62.997 65.097,61.432 67.112,60.316C69.126,59.2 71.449,58.643 74.08,58.643L79.374,58.643C82.005,58.643 84.328,59.2 86.343,60.316C88.357,61.432 89.922,62.997 91.038,65.011C92.153,67.026 92.711,69.365 92.711,72.029L92.711,80.621C92.711,83.218 91.945,85.682 90.413,88.013L94.31,91.86L89.964,96.455ZM79.374,88.313C80.007,88.313 80.64,88.18 81.273,87.914L76.727,83.418L81.073,78.823L85.418,83.118C85.685,82.253 85.818,81.42 85.818,80.621L85.818,72.329C85.818,70.065 85.227,68.233 84.045,66.835C82.863,65.436 81.306,64.737 79.374,64.737L74.08,64.737C72.148,64.737 70.592,65.436 69.409,66.835C68.227,68.233 67.636,70.065 67.636,72.329L67.636,80.721C67.636,82.985 68.227,84.817 69.409,86.215C70.592,87.614 72.148,88.313 74.08,88.313L79.374,88.313Z" style="fill:rgb(239,68,68);stroke:black;stroke-width:0.19px;"/>
    </g>
    <g transform="matrix(5.65745,0,0,5.02165,-337.598,-288.215)">
        <path d="M89.964,96.455L85.918,92.459C83.853,93.758 81.672,94.407 79.374,94.407L74.08,94.407C71.449,94.407 69.126,93.849 67.112,92.734C65.097,91.618 63.532,90.053 62.416,88.038C61.301,86.024 60.743,83.684 60.743,81.02L60.743,72.029C60.743,69.365 61.301,67.026 62.416,65.011C63.532,62.997 65.097,61.432 67.112,60.316C69.126,59.2 71.449,58.643 74.08,58.643L79.374,58.643C82.005,58.643 84.328,59.2 86.343,60.316C88.357,61.432 89.922,62.997 91.038,65.011C92.153,67.026 92.711,69.365 92.711,72.029L92.711,80.621C92.711,83.218 91.945,85.682 90.413,88.013L94.31,91.86L89.964,96.455Z" style="fill:none;stroke:black;stroke-width:0.19px;"/>
    </g>
    <g transform="matrix(5.65745,0,0,5.02165,-337.598,-288.215)">
        <path d="M79.374,88.313C80.007,88.313 80.64,88.18 81.273,87.914L76.727,83.418L81.073,78.823L85.418,83.118C85.685,82.253 85.818,81.42 85.818,80.621L85.818,72.329C85.818,70.065 85.227,68.233 84.045,66.835C82.863,65.436 81.306,64.737 79.374,64.737L74.08,64.737C72.148,64.737 70.592,65.436 69.409,66.835C68.227,68.233 67.636,70.065 67.636,72.329L67.636,80.721C67.636,82.985 68.227,84.817 69.409,86.215C70.592,87.614 72.148,88.313 74.08,88.313L79.374,88.313Z" style="fill:none;stroke:black;stroke-width:0.19px;"/>
    </g>
</svg>
